<?xml version="1.0" encoding="UTF-8" standalone="no"?>
<svg
   xmlns:dc="http://purl.org/dc/elements/1.1/"
   xmlns:cc="http://creativecommons.org/ns#"
   xmlns:rdf="http://www.w3.org/1999/02/22-rdf-syntax-ns#"
   xmlns:svg="http://www.w3.org/2000/svg"
   xmlns="http://www.w3.org/2000/svg"
   width="36.8312mm"
   height="18.139994mm"
   viewBox="0 0 36.8312 18.139994"
   version="1.1"
   id="svg8">
  <defs
     id="defs2" />
  <metadata
     id="metadata5">
    <rdf:RDF>
      <cc:Work
         rdf:about="">
        <dc:format>image/svg+xml</dc:format>
        <dc:type
           rdf:resource="http://purl.org/dc/dcmitype/StillImage" />
        <dc:title></dc:title>
      </cc:Work>
    </rdf:RDF>
  </metadata>
  <g
     id="layer1"
     transform="translate(-6.0633678,-11.169815)">
    <g
       id="flowRoot4518"
       style="font-style:normal;font-variant:normal;font-weight:normal;font-stretch:normal;font-size:85.33333588px;line-height:1.25;font-family:Phenomena;-inkscape-font-specification:Phenomena;letter-spacing:0px;word-spacing:0px;fill:#000000;fill-opacity:1;stroke:none"
       transform="matrix(0.26458333,0,0,0.26458333,0.85040304,0.22236248)"
       aria-label="brille">
      <path
         id="path826"
         style="font-size:85.33333588px"
         d="m 37.552068,61.864454 c 3.868445,0 6.997334,1.28 9.386667,3.84 2.446223,2.503111 3.669334,5.688889 3.669334,9.557333 v 17.578668 c 0,3.868445 -1.223111,7.082666 -3.669334,9.642665 -2.389333,2.50311 -5.518222,3.75467 -9.386667,3.75467 -3.868445,0 -7.025778,-1.25156 -9.472,-3.75467 -2.389333,-2.559999 -3.584,-5.77422 -3.584,-9.642665 V 48.504453 c 0,-0.568889 0.372749,-0.548909 0.853333,-0.853333 l 3.157334,-2 c 0.480584,-0.304424 0.853333,0.284444 0.853333,0.853333 v 19.626668 c 2.275555,-2.844445 5.006222,-4.266667 8.192,-4.266667 z m 8.192,13.397333 c 0,-2.616889 -0.739555,-4.721777 -2.218666,-6.314666 -1.479111,-1.592889 -3.470223,-2.389334 -5.973334,-2.389334 -2.503111,0 -4.494222,0.796445 -5.973333,2.389334 -1.479111,1.592889 -2.218667,3.697777 -2.218667,6.314666 v 17.578668 c 0,2.616889 0.739556,4.721778 2.218667,6.314667 1.479111,1.592888 3.470222,2.389328 5.973333,2.389328 2.503111,0 4.494223,-0.79644 5.973334,-2.389328 1.479111,-1.592889 2.218666,-3.697778 2.218666,-6.314667 z" />
      <path
         id="path828"
         style="font-size:85.33333588px"
         d="m 60.016069,105.38446 q -0.853333,0 -0.853333,-0.85334 V 75.603121 q 0,-5.802667 3.754667,-9.472 3.84,-3.669334 9.642667,-3.669334 h 3.754666 q 0.853334,0 0.853334,0.853333 v 2.986667 q 0,0.853334 -0.853334,0.853334 H 72.56007 q -3.840001,0 -6.229334,2.304 -2.304,2.218666 -2.304,6.144 v 28.927999 q 0,0.85334 -0.853333,0.85334 z" />
      <path
         id="path830"
         style="font-size:85.33333588px"
         d="m 84.53607,105.38446 c -0.568889,0 -0.853333,-0.28445 -0.853333,-0.85334 v -40.96 c 0,-0.568889 0.372749,-0.548909 0.853333,-0.853333 l 3.157334,-2 c 0.480584,-0.304424 0.853333,0.284444 0.853333,0.853333 v 42.96 c 0,0.56889 -0.284444,0.85334 -0.853333,0.85334 z" />
      <path
         id="path832"
         style="font-size:85.33333588px"
         d="m 100.36941,105.38446 c -0.568891,0 -0.853337,-0.28445 -0.853337,-0.85334 V 48.504453 c 0,-0.568889 0.372751,-0.548908 0.853337,-0.853333 l 3.15733,-2 c 0.48058,-0.304423 0.85333,0.284444 0.85333,0.853333 v 58.026667 c 0,0.56889 -0.28444,0.85334 -0.85333,0.85334 z" />
      <path
         id="path834"
         style="font-size:85.33333588px"
         d="m 116.20273,105.38446 c -0.56889,0 -0.85333,-0.28445 -0.85333,-0.85334 V 48.504453 c 0,-0.568889 0.37275,-0.548912 0.85333,-0.853333 l 3.15734,-2 c 0.48058,-0.304421 0.85333,0.284444 0.85333,0.853333 v 58.026667 c 0,0.56889 -0.28444,0.85334 -0.85333,0.85334 z" />
      <path
         id="path836"
         style="font-size:85.33333588px"
         d="m 142.03207,106.15246 c -3.92533,0 -7.08267,-1.22311 -9.472,-3.66934 -2.38933,-2.44622 -3.584,-5.688888 -3.584,-9.727999 V 75.432454 c 0,-3.982222 1.16622,-7.224889 3.49867,-9.728 2.38933,-2.503111 5.57511,-3.754667 9.55733,-3.754667 3.86845,0 6.99734,1.251556 9.38667,3.754667 2.44622,2.446222 3.66933,5.575111 3.66933,9.386667 0,3.584 -1.22311,6.570667 -3.66933,8.96 -2.38933,2.332445 -5.51822,3.498667 -9.38667,3.498667 h -8.192 v 5.205333 c 0,2.616889 0.73956,4.721778 2.21867,6.314667 1.47911,1.592892 3.47022,2.389332 5.97333,2.389332 2.38933,0 4.29511,-0.79644 5.71733,-2.389332 1.47911,-1.592889 2.27556,-3.697778 2.38934,-6.314667 0,-0.568889 0.28444,-0.853333 0.85333,-0.853333 h 3.15733 c 0.56889,0 0.85334,0.284444 0.85334,0.853333 -0.11378,3.982223 -1.36534,7.224889 -3.75467,9.727999 -2.38933,2.44623 -5.46133,3.66934 -9.216,3.66934 z m 0,-23.296006 c 2.50311,0 4.49422,-0.711111 5.97333,-2.133333 1.47911,-1.479111 2.21867,-3.356445 2.21867,-5.632 0,-2.503111 -0.73956,-4.522667 -2.21867,-6.058667 -1.47911,-1.592889 -3.47022,-2.389333 -5.97333,-2.389333 -2.61689,0 -4.63644,0.796444 -6.05867,2.389333 -1.42222,1.592889 -2.13333,3.726222 -2.13333,6.4 v 7.424 z" />
    </g>
    <flowRoot
       xml:space="preserve"
       id="flowRoot4591"
       style="font-style:normal;font-variant:normal;font-weight:normal;font-stretch:normal;font-size:42.66666794px;line-height:1.25;font-family:Phenomena;-inkscape-font-specification:Phenomena;letter-spacing:0px;word-spacing:0px;fill:#000000;fill-opacity:1;stroke:none"><flowRegion
         id="flowRegion4593"><rect
           id="rect4595"
           width="124.25043"
           height="110.16256"
           x="19.399696"
           y="-0.81508499" /></flowRegion><flowPara
         id="flowPara4597" /></flowRoot>    <flowRoot
       xml:space="preserve"
       id="flowRoot4599"
       style="font-style:normal;font-variant:normal;font-weight:normal;font-stretch:normal;font-size:42.66666794px;line-height:1.25;font-family:Phenomena;-inkscape-font-specification:Phenomena;letter-spacing:0px;word-spacing:0px;fill:#000000;fill-opacity:1;stroke:none"><flowRegion
         id="flowRegion4601"><rect
           id="rect4603"
           width="110.62446"
           height="72.748863"
           x="9.9307966"
           y="14.196585" /></flowRegion><flowPara
         id="flowPara4605" /></flowRoot>    <rect
       style="fill:none;fill-opacity:1;fill-rule:nonzero;stroke:none;stroke-width:0.23674716;stroke-opacity:1"
       id="rect4635"
       width="36.8312"
       height="18.139994"
       x="6.0633678"
       y="11.169815" />
  </g>
</svg>
